HIERARCHY
ROOT hip
{
  OFFSET 0 0 0
  CHANNELS 6 Xposition Yposition Zposition Zrotation Yrotation Xrotation
  JOINT abdomen
  {
    OFFSET 0 20.6881 -0.73152
    CHANNELS 3 Zrotation Xrotation Yrotation
    JOINT chest
    {
      OFFSET 0 11.7043 -0.48768
      CHANNELS 3 Zrotation Xrotation Yrotation
      JOINT neck
      {
        OFFSET 0 22.1894 -2.19456
        CHANNELS 3 Zrotation Xrotation Yrotation
        JOINT head
        {
          OFFSET -0.24384 7.07133 1.2192
          CHANNELS 3 Zrotation Xrotation Yrotation
          JOINT leftEye
          {
            OFFSET 4.14528 8.04674 8.04672
            CHANNELS 3 Zrotation Xrotation Yrotation
            End Site
            {
              OFFSET 1 0 0
            }
          }
          JOINT rightEye
          {
            OFFSET -3.6576 8.04674 8.04672
            CHANNELS 3 Zrotation Xrotation Yrotation
            End Site
            {
              OFFSET 1 0 0
            }
          }
        }
      }
      JOINT rCollar
      {
        OFFSET -2.68224 19.2634 -4.8768
        CHANNELS 3 Zrotation Xrotation Yrotation
        JOINT rShldr
        {
          OFFSET -8.77824 -1.95073 1.46304
          CHANNELS 3 Zrotation Xrotation Yrotation
          JOINT rForeArm
          {
            OFFSET -28.1742 -1.7115 0.48768
            CHANNELS 3 Zrotation Xrotation Yrotation
            JOINT rHand
            {
              OFFSET -22.5879 0.773209 7.07136
              CHANNELS 3 Zrotation Xrotation Yrotation
              JOINT rThumb1
              {
                OFFSET -1.2192 -0.487915 3.41376
                CHANNELS 3 Zrotation Xrotation Yrotation
                JOINT rThumb2
                {
                  OFFSET -3.37035 -0.52449 3.41376
                  CHANNELS 3 Zrotation Xrotation Yrotation
                  End Site
                  {
                    OFFSET -1.78271 -1.18214 1.43049
                  }
                }
              }
              JOINT rIndex1
              {
                OFFSET -7.75947 0.938293 5.60832
                CHANNELS 3 Zrotation Xrotation Yrotation
                JOINT rIndex2
                {
                  OFFSET -2.54057 -0.884171 1.56538
                  CHANNELS 3 Zrotation Xrotation Yrotation
                  End Site
                  {
                    OFFSET -1.62519 -0.234802 1.16502
                  }
                }
              }
              JOINT rMid1
              {
                OFFSET -8.24714 1.18213 3.41376
                CHANNELS 3 Zrotation Xrotation Yrotation
                JOINT rMid2
                {
                  OFFSET -3.10165 -0.590103 1.0647
                  CHANNELS 3 Zrotation Xrotation Yrotation
                  End Site
                  {
                    OFFSET -2.48547 -0.328903 0.83742
                  }
                }
              }
              JOINT rRing1
              {
                OFFSET -8.82822 0.546677 1.51678
                CHANNELS 3 Zrotation Xrotation Yrotation
                JOINT rRing2
                {
                  OFFSET -2.60934 -0.819778 -0.0198488
                  CHANNELS 3 Zrotation Xrotation Yrotation
                  End Site
                  {
                    OFFSET -2.33842 -0.294052 0.168128
                  }
                }
              }
              JOINT rPinky1
              {
                OFFSET -8.27202 -0.0477905 -0.4584
                CHANNELS 3 Zrotation Xrotation Yrotation
                JOINT rPinky2
                {
                  OFFSET -1.82734 -0.647385 -0.700984
                  CHANNELS 3 Zrotation Xrotation Yrotation
                  End Site
                  {
                    OFFSET -1.69225 -0.51767 -0.607171
                  }
                }
              }
            }
          }
        }
      }
      JOINT lCollar
      {
        OFFSET 2.68224 19.2634 -4.8768
        CHANNELS 3 Zrotation Xrotation Yrotation
        JOINT lShldr
        {
          OFFSET 8.77824 -1.95073 1.46304
          CHANNELS 3 Zrotation Xrotation Yrotation
          JOINT lForeArm
          {
            OFFSET 28.1742 -1.7115 0.48768
            CHANNELS 3 Zrotation Xrotation Yrotation
            JOINT lHand
            {
              OFFSET 22.5879 0.773209 7.07136
              CHANNELS 3 Zrotation Xrotation Yrotation
              JOINT lThumb1
              {
                OFFSET 1.2192 -0.487915 3.41376
                CHANNELS 3 Zrotation Xrotation Yrotation
                JOINT lThumb2
                {
                  OFFSET 3.37035 -0.52449 3.41376
                  CHANNELS 3 Zrotation Xrotation Yrotation
                  End Site
                  {
                    OFFSET 1.78271 -1.18214 1.43049
                  }
                }
              }
              JOINT lIndex1
              {
                OFFSET 7.75947 0.938293 5.60832
                CHANNELS 3 Zrotation Xrotation Yrotation
                JOINT lIndex2
                {
                  OFFSET 2.54057 -0.884171 1.56538
                  CHANNELS 3 Zrotation Xrotation Yrotation
                  End Site
                  {
                    OFFSET 1.62519 -0.234802 1.16502
                  }
                }
              }
              JOINT lMid1
              {
                OFFSET 8.24714 1.18213 3.41376
                CHANNELS 3 Zrotation Xrotation Yrotation
                JOINT lMid2
                {
                  OFFSET 3.10165 -0.590103 1.0647
                  CHANNELS 3 Zrotation Xrotation Yrotation
                  End Site
                  {
                    OFFSET 2.48547 -0.328903 0.83742
                  }
                }
              }
              JOINT lRing1
              {
                OFFSET 8.82822 0.546677 1.51678
                CHANNELS 3 Zrotation Xrotation Yrotation
                JOINT lRing2
                {
                  OFFSET 2.60934 -0.819778 -0.0198488
                  CHANNELS 3 Zrotation Xrotation Yrotation
                  End Site
                  {
                    OFFSET 2.33842 -0.294052 0.168128
                  }
                }
              }
              JOINT lPinky1
              {
                OFFSET 8.27202 -0.0477905 -0.4584
                CHANNELS 3 Zrotation Xrotation Yrotation
                JOINT lPinky2
                {
                  OFFSET 1.82734 -0.647385 -0.700984
                  CHANNELS 3 Zrotation Xrotation Yrotation
                  End Site
                  {
                    OFFSET 1.69225 -0.51767 -0.607171
                  }
                }
              }
            }
          }
        }
      }
    }
  }
  JOINT rButtock
  {
    OFFSET -8.77824 4.35084 1.2192
    CHANNELS 3 Zrotation Xrotation Yrotation
    JOINT rThigh
    {
      OFFSET 0 -1.70687 -2.19456
      CHANNELS 3 Zrotation Xrotation Yrotation
      JOINT rShin
      {
        OFFSET 0 -36.8199 0.73152
        CHANNELS 3 Zrotation Xrotation Yrotation
        JOINT rFoot
        {
          OFFSET 0.73152 -45.1104 -5.12064
          CHANNELS 3 Zrotation Xrotation Yrotation
          End Site
          {
            OFFSET -1.1221 -3.69964 12.103
          }
        }
      }
    }
  }
  JOINT lButtock
  {
    OFFSET 8.77824 4.35084 1.2192
    CHANNELS 3 Zrotation Xrotation Yrotation
    JOINT lThigh
    {
      OFFSET 0 -1.70687 -2.19456
      CHANNELS 3 Zrotation Xrotation Yrotation
      JOINT lShin
      {
        OFFSET 0 -36.8199 0.73152
        CHANNELS 3 Zrotation Xrotation Yrotation
        JOINT lFoot
        {
          OFFSET -0.73152 -45.1104 -5.12064
          CHANNELS 3 Zrotation Xrotation Yrotation
          End Site
          {
            OFFSET 1.1221 -3.69964 12.103
          }
        }
      }
    }
  }
}
MOTION
Frames:	6
Frame Time:	0.00833333
62.0334 85.2125 -219.225 365.147 16.6355 -2.1645 9.09845 8.66772 5.9521 1.54511 -2.99788 1.93317 -7.54586 24.7432 -15.5728 7.65314 -26.0002 -29.2099 -0.0 0.0 0.0 -0.0 0.0 0.0 -3.9958e-14 -9.76226e-14 2.6142e-13 45.8141 42.8166 21.3545 -16.6539 -9.30945 31.0649 -1.61168 33.5359 5.34488 -2.24362e-10 1.20508e-09 -8.16834e-10 -4.10736e-10 2.0427e-09 -1.4036e-09 -2.24354e-10 1.20508e-09 -8.16841e-10 7.73091 5.47488 0.417314 -2.24361e-10 1.20508e-09 -8.16838e-10 2.90554 0.965183 0.102902 -2.24357e-10 1.20507e-09 -8.16837e-10 10.2786 0.731801 0.0259123 -2.24371e-10 1.20508e-09 -8.16832e-10 2.22167 -0.733487 -0.20892 -4.00181e-14 -9.76465e-14 2.61308e-13 -74.6936 46.9964 15.7012 26.7675 -25.5905 -60.2295 0.0105027 2.95012 -0.414975 7.30208e-10 9.03413e-10 -1.49894e-09 1.25862e-09 1.55291e-09 -2.59424e-09 7.30202e-10 9.03411e-10 -1.49894e-09 -7.73091 5.47488 -0.417314 7.30213e-10 9.03417e-10 -1.49894e-09 -2.90554 0.965183 -0.102902 7.30206e-10 9.03418e-10 -1.49895e-09 -10.2786 0.731801 -0.0259123 7.30212e-10 9.03417e-10 -1.49895e-09 -2.22167 -0.733487 0.20892 -2.03217e-16 0.0 -3.88251e-19 -10.3677 -16.4027 -5.51658 -0.708896 53.9293 1.32518 -5.44705 -7.67451 -16.4189 2.03217e-16 0.0 3.88251e-19 -10.0978 -13.8928 -4.57971 0.18549 30.1614 -0.450941 -1.05039 -14.9144 -4.47292
62.1025 85.0783 -219.266 365.276 16.6322 -2.5042 8.94766 8.83628 5.87488 1.51859 -2.98685 1.91058 -7.66348 24.7493 -15.5007 7.61865 -25.9793 -29.0972 -0.0 0.0 0.0 -0.0 0.0 0.0 -5.41381e-14 -1.20291e-13 5.05808e-13 46.0878 43.0387 21.0076 -16.5724 -9.23044 30.8898 -1.60699 33.4943 5.33642 -2.49857e-10 2.49879e-09 -1.57798e-09 -4.75993e-10 4.25196e-09 -2.71676e-09 -2.49847e-10 2.4988e-09 -1.57799e-09 7.73091 5.47488 0.417314 -2.49857e-10 2.4988e-09 -1.57798e-09 2.90554 0.965183 0.102902 -2.49851e-10 2.49879e-09 -1.57798e-09 10.2786 0.731801 0.0259123 -2.49864e-10 2.49879e-09 -1.57797e-09 2.22167 -0.733487 -0.20892 -5.41718e-14 -1.20338e-13 5.05668e-13 -73.4758 47.005 14.5038 26.7755 -25.6155 -60.271 0.00781337 2.56659 -0.360943 1.36633e-09 1.46623e-09 -2.92385e-09 2.35526e-09 2.5172e-09 -5.05753e-09 1.36633e-09 1.46623e-09 -2.92384e-09 -7.73091 5.47488 -0.417314 1.36633e-09 1.46624e-09 -2.92385e-09 -2.90554 0.965183 -0.102902 1.36633e-09 1.46624e-09 -2.92385e-09 -10.2786 0.731801 -0.0259123 1.36634e-09 1.46624e-09 -2.92386e-09 -2.22167 -0.733487 0.20892 -2.03217e-16 0.0 -3.88251e-19 -10.5518 -16.532 -5.74858 -0.721419 54.2865 1.35318 -5.68419 -8.17688 -16.6892 2.03217e-16 0.0 3.88251e-19 -10.179 -13.9764 -4.23265 0.189994 30.5474 -0.459035 -1.21063 -15.3375 -4.79964
62.2632 84.9303 -219.418 365.517 17.198 -2.2998 8.75969 8.98989 5.79209 1.49119 -2.97314 1.88456 -7.79044 24.7577 -15.4158 7.5914 -25.9448 -28.9598 -0.0 0.0 0.0 -0.0 0.0 0.0 -6.65814e-14 -1.32302e-13 6.94536e-13 46.3511 43.2502 20.6766 -16.4765 -9.13774 30.6848 -1.59889 33.4227 5.32185 -2.56717e-10 3.52263e-09 -2.1717e-09 -5.04412e-10 6.00086e-09 -3.74153e-09 -2.56705e-10 3.52264e-09 -2.17173e-09 7.73091 5.47488 0.417314 -2.56718e-10 3.52265e-09 -2.17171e-09 2.90554 0.965183 0.102902 -2.56711e-10 3.52263e-09 -2.17171e-09 10.2786 0.731801 0.0259123 -2.56723e-10 3.52262e-09 -2.1717e-09 2.22167 -0.733487 -0.20892 -6.65866e-14 -1.32368e-13 6.94363e-13 -72.2574 46.9967 13.2932 26.773 -25.6075 -60.2576 0.0060422 2.24424 -0.315564 1.87783e-09 1.92619e-09 -4.05057e-09 3.23727e-09 3.3059e-09 -7.00516e-09 1.87783e-09 1.9262e-09 -4.05055e-09 -7.73091 5.47488 -0.417314 1.87783e-09 1.9262e-09 -4.05057e-09 -2.90554 0.965183 -0.102902 1.87783e-09 1.9262e-09 -4.05057e-09 -10.2786 0.731801 -0.0259123 1.87784e-09 1.9262e-09 -4.05058e-09 -2.22167 -0.733487 0.20892 -2.03217e-16 0.0 -3.88251e-19 -10.7628 -16.6394 -5.95548 -0.733494 54.624 1.38008 -5.93661 -8.65168 -17.0135 2.03217e-16 0.0 3.88251e-19 -10.2982 -14.0116 -3.91157 0.193505 30.8558 -0.464923 -1.36529 -15.723 -5.11044
62.2609 84.7834 -219.483 365.764 16.7211 -2.5686 8.56803 9.08213 5.70534 1.44876 -2.94504 1.85495 -7.90905 24.7806 -15.3254 7.60402 -25.9295 -28.8024 -0.0 0.0 0.0 -0.0 0.0 0.0 -7.98948e-14 -1.26393e-13 6.96691e-13 46.7422 43.3499 20.2195 -16.3855 -9.05036 30.4907 -1.59703 33.4067 5.31857 -1.90375e-10 3.46306e-09 -2.08411e-09 -3.87873e-10 5.9022e-09 -3.59234e-09 -1.90361e-10 3.46307e-09 -2.08414e-09 7.73091 5.47488 0.417314 -1.90376e-10 3.46309e-09 -2.08412e-09 2.90554 0.965183 0.102902 -1.90368e-10 3.46305e-09 -2.08412e-09 10.2786 0.731801 0.0259123 -1.9038e-10 3.46305e-09 -2.0841e-09 2.22167 -0.733487 -0.20892 -7.98832e-14 -1.26461e-13 6.96492e-13 -71.0174 47.0005 12.0608 26.7567 -25.5567 -60.1728 0.0054156 2.10075 -0.295374 1.97333e-09 2.06564e-09 -4.02673e-09 3.40288e-09 3.54815e-09 -6.96368e-09 1.97332e-09 2.06565e-09 -4.02672e-09 -7.73091 5.47488 -0.417314 1.97333e-09 2.06565e-09 -4.02673e-09 -2.90554 0.965183 -0.102902 1.97332e-09 2.06565e-09 -4.02674e-09 -10.2786 0.731801 -0.0259123 1.97333e-09 2.06565e-09 -4.02674e-09 -2.22167 -0.733487 0.20892 -2.03217e-16 0.0 -3.88251e-19 -10.9694 -16.7384 -6.14545 -0.744356 54.928 1.40604 -6.19394 -9.12958 -17.3339 2.03217e-16 0.0 3.88251e-19 -10.421 -14.0631 -3.6032 0.196478 31.1098 -0.469348 -1.52735 -16.0406 -5.45177
62.4261 84.6927 -219.597 365.953 17.41 -2.3699 8.36298 9.08176 5.61147 1.39001 -2.89647 1.81937 -8.02136 24.8316 -15.2257 7.68832 -25.9559 -28.6115 -0.0 0.0 0.0 -0.0 0.0 0.0 -9.64995e-14 -9.04737e-14 3.8892e-13 47.3181 43.2862 19.585 -16.3004 -8.96944 30.3092 -1.6051 33.4793 5.33325 9.05455e-12 1.57933e-09 -8.43255e-10 -1.00806e-11 2.69347e-09 -1.45627e-09 9.06895e-12 1.57935e-09 -8.43277e-10 7.73091 5.47488 0.417314 9.05447e-12 1.57936e-09 -8.4326e-10 2.90554 0.965183 0.102902 9.063e-12 1.57933e-09 -8.43258e-10 10.2786 0.731801 0.0259123 9.05056e-12 1.57933e-09 -8.43247e-10 2.22167 -0.733487 -0.20892 -9.64873e-14 -9.05199e-14 3.88704e-13 -69.7485 47.0353 10.8107 26.7251 -25.4595 -60.0185 0.00597696 2.23171 -0.3138 1.36536e-09 1.6442e-09 -2.07719e-09 2.35705e-09 2.83366e-09 -3.59286e-09 1.36536e-09 1.6442e-09 -2.07718e-09 -7.73091 5.47488 -0.417314 1.36536e-09 1.64421e-09 -2.0772e-09 -2.90554 0.965183 -0.102902 1.36536e-09 1.64421e-09 -2.0772e-09 -10.2786 0.731801 -0.0259123 1.36537e-09 1.64421e-09 -2.0772e-09 -2.22167 -0.733487 0.20892 -2.03217e-16 0.0 -3.88251e-19 -11.1751 -16.8371 -6.32638 -0.753896 55.1991 1.43095 -6.45417 -9.61611 -17.639 2.03217e-16 0.0 3.88251e-19 -10.5547 -14.142 -3.32159 0.198572 31.2852 -0.471651 -1.69442 -16.2712 -5.82548
62.4719 84.6151 -219.668 366.16 17.2668 -2.445 8.13243 9.01975 5.51087 1.32172 -2.83465 1.77868 -8.13472 24.9009 -15.1145 7.81943 -26.0018 -28.3892 -0.0 0.0 0.0 -0.0 0.0 0.0 -1.1443e-13 -3.18026e-14 -1.29474e-13 47.991 43.1178 18.8581 -16.2122 -8.88609 30.1215 -1.61766 33.5914 5.35601 2.97358e-10 -1.52005e-09 1.16515e-09 5.42146e-10 -2.58795e-09 2.00212e-09 2.97372e-10 -1.52005e-09 1.16514e-09 7.73091 5.47488 0.417314 2.97359e-10 -1.52004e-09 1.16515e-09 2.90554 0.965183 0.102902 2.97367e-10 -1.52006e-09 1.16515e-09 10.2786 0.731801 0.0259123 2.97354e-10 -1.52006e-09 1.16516e-09 2.22167 -0.733487 -0.20892 -1.14426e-13 -3.18088e-14 -1.29704e-13 -68.4599 47.0814 9.54352 26.6792 -25.3202 -59.8021 0.00767894 2.55295 -0.359018 2.79264e-10 8.38725e-10 1.16084e-09 4.87808e-10 1.46403e-09 2.00569e-09 2.79258e-10 8.38724e-10 1.16085e-09 -7.73091 5.47488 -0.417314 2.79262e-10 8.38726e-10 1.16083e-09 -2.90554 0.965183 -0.102902 2.79262e-10 8.38733e-10 1.16084e-09 -10.2786 0.731801 -0.0259123 2.79269e-10 8.38732e-10 1.16083e-09 -2.22167 -0.733487 0.20892 -2.03217e-16 0.0 -3.88251e-19 -11.3925 -16.927 -6.4919 -0.762323 55.4432 1.45461 -6.72304 -10.0955 -17.9585 2.03217e-16 0.0 3.88251e-19 -10.7122 -14.216 -3.06802 0.199621 31.3797 -0.471666 -1.85964 -16.4347 -6.20965
